<svg width="16" height="18" viewBox="0 0 16 18" fill="none" xmlns="http://www.w3.org/2000/svg">
<path d="M13.2481 2.42857H14.1053C14.266 2.42857 14.391 2.30357 14.391 2.14286V1.57143C14.391 1.41071 14.266 1.28571 14.1053 1.28571H0.962426C0.801712 1.28571 0.676712 1.41071 0.676712 1.57143V2.14286C0.676712 2.30357 0.801712 2.42857 0.962426 2.42857H1.81957C1.81957 5.73214 3.39993 8.125 5.14993 9.28571C3.39993 10.4464 1.81957 12.8393 1.81957 16.1429H0.962426C0.801712 16.1429 0.676712 16.2679 0.676712 16.4286V17C0.676712 17.1607 0.801712 17.2857 0.962426 17.2857H14.1053C14.266 17.2857 14.391 17.1607 14.391 17V16.4286C14.391 16.2679 14.266 16.1429 14.1053 16.1429H13.2481C13.2481 12.8393 11.6678 10.4464 9.91778 9.28571C11.6678 8.125 13.2481 5.73214 13.2481 2.42857ZM12.1053 2.42857C12.1053 3.73214 11.8106 4.88393 11.3464 5.85714H3.72135C3.25707 4.88393 2.96243 3.73214 2.96243 2.42857H12.1053ZM11.5964 13.2857H3.47135C4.13207 11.5625 5.31957 10.3393 6.50707 9.85714H8.56064C9.74814 10.3393 10.9356 11.5625 11.5964 13.2857Z" fill="white"/>
</svg>
