<svg width="18" height="18" viewBox="0 0 18 18" fill="none" xmlns="http://www.w3.org/2000/svg">
<path d="M9.48214 7.64286L10.6518 8.1875L12.3929 7.66964V6.45536C12.3929 4.39286 10.6518 2.74107 8.57143 2.74107C6.5 2.74107 4.75 4.38393 4.75 6.42857V11.9643C4.75 12.4732 4.33929 12.875 3.83929 12.875C3.33929 12.875 2.92857 12.4732 2.92857 11.9643V9.625H0C0 11.9732 0 12 0 12C0 14.1161 1.71429 15.8304 3.83036 15.8304C5.92857 15.8304 7.66071 14.1429 7.66071 12.0536V6.58928C7.66071 6.08928 8.07143 5.67857 8.57143 5.67857C9.07143 5.67857 9.48214 6.08928 9.48214 6.58928V7.64286ZM14.2143 9.625V12.0804C14.2143 12.5804 13.8036 12.9821 13.3036 12.9821C12.8036 12.9821 12.3929 12.5804 12.3929 12.0804V9.66964L10.6518 10.1875L9.48214 9.64286V12.0357C9.48214 14.1339 11.2054 15.8304 13.3125 15.8304C15.4286 15.8304 17.1429 14.1161 17.1429 12C17.1429 12 17.1429 11.9732 17.1429 9.625H14.2143Z" fill="white"/>
</svg>
